<svg xmlns="http://www.w3.org/2000/svg" width="800" height="800" viewBox="0 0 531.716 531.716" xml:space="preserve"><path d="M531.716 265.777a6.717 6.717 0 0 0-2.889-5.502l-51.814-36.469 33.901-53.536c1.195-1.876 1.41-4.191.551-6.207a6.738 6.738 0 0 0-4.77-4.028l-61.811-13.843 10.827-62.445c.374-2.151-.321-4.392-1.871-5.932-1.568-1.541-3.79-2.32-5.946-1.881L385.473 86.79l-13.87-61.834c-.495-2.124-1.983-3.948-4.009-4.784-2.031-.845-4.383-.667-6.213.555l-53.503 33.902-36.482-51.856c-2.544-3.58-8.527-3.58-11.075 0l-36.469 51.833-53.526-33.902c-1.844-1.195-4.182-1.423-6.207-.527-2.04.808-3.526 2.632-4.019 4.747l-13.85 61.872-62.445-10.852c-2.189-.443-4.375.336-5.935 1.876a6.702 6.702 0 0 0-1.878 5.932l10.868 62.445-61.851 13.843a6.756 6.756 0 0 0-4.774 4.027 6.66 6.66 0 0 0 .551 6.208l33.925 53.508-51.843 36.492A6.763 6.763 0 0 0 0 265.777c0 2.217 1.076 4.256 2.868 5.544l51.851 36.445-33.934 53.555a6.745 6.745 0 0 0-.532 6.212 6.772 6.772 0 0 0 4.765 4.005l61.836 13.838L76 447.826a6.8 6.8 0 0 0 1.879 5.955c1.549 1.512 3.738 2.356 5.945 1.876l62.425-10.874 13.863 61.829a6.812 6.812 0 0 0 4.014 4.789c2.042.844 4.364.672 6.21-.551l53.501-33.93 36.482 51.818a6.743 6.743 0 0 0 5.54 2.889c2.207 0 4.261-1.097 5.535-2.889l36.445-51.795 53.54 33.906a6.474 6.474 0 0 0 6.213.522c2.025-.817 3.514-2.604 4.009-4.761l13.843-61.829 62.449 10.874c2.189.443 4.378-.359 5.946-1.876a6.833 6.833 0 0 0 1.871-5.955l-10.86-62.427 61.844-13.861a6.782 6.782 0 0 0 4.77-4.005 6.665 6.665 0 0 0-.551-6.212l-33.901-53.531 51.814-36.469c1.812-1.286 2.89-3.325 2.89-5.542zM265.86 409.248c-79.124 0-143.492-64.35-143.492-143.471 0-79.084 64.368-143.476 143.492-143.476 79.121 0 143.479 64.392 143.479 143.476.001 79.121-64.358 143.471-143.479 143.471z"/><path d="M151.221 265.889c0 64.247 52.056 116.327 116.299 116.327V149.604c-64.243 0-116.299 52.047-116.299 116.285z"/></svg>